<svg xmlns="http://www.w3.org/2000/svg" xmlns:xlink="http://www.w3.org/1999/xlink" aria-hidden="true" role="img" class="iconify iconify--logos" width="31.88" height="32" preserveAspectRatio="xMidYMid meet" viewBox="0 0 256 257"><defs><linearGradient id="IconifyId1813088fe1fbc01fb466" x1="-.828%" x2="57.636%" y1="7.652%" y2="78.411%"><stop offset="0%" style="stop-color:#41D1FF"></stop><stop offset="100%" style="stop-color:#BD34FE"></stop></linearGradient><linearGradient id="IconifyId1813088fe1fbc01fb467" x1="43.376%" x2="50.316%" y1="2.242%" y2="89.03%"><stop offset="0%" style="stop-color:#FFEA83"></stop><stop offset="8.333%" style="stop-color:#FFDD35"></stop><stop offset="100%" style="stop-color:#FFA800"></stop></linearGradient></defs><path fill="url(#IconifyId1813088fe1fbc01fb466)" d="M255.153 37.938L134.897 252.976c-2.483 4.44-8.862 4.466-11.382.048L.875 37.958c-2.746-4.814 1.371-10.346 6.827-9.67l120.385 14.925c.287.047.579.047.867 0l120.385-14.925c5.456-.676 9.573 4.856 6.827 9.67Z"></path><path fill="url(#IconifyId1813088fe1fbc01fb467)" d="M191.334 18.993L128.306 50.747c-.357.196-.747.196-1.104 0L64.174 18.993C61.943 17.732 59.5 19.725 60.267 22.324l13.594 46.098c.118.4.412.714.82.832l126.638 36.743c.408.118.702.432.82.832l13.594 46.098c.767 2.599-1.676 4.592-3.907 3.331L128.306 132.747c-.357-.196-.747-.196-1.104 0l-83.52 23.511c-2.231 1.261-4.674-.732-3.907-3.331l13.594-46.098c.118-.4.412-.714.82-.832L180.827 69.254c.408-.118.702-.432.82-.832l13.594-46.098c.767-2.599-1.676-4.592-3.907-3.331Z"></path></svg>